<svg xmlns="http://www.w3.org/2000/svg" viewBox="0 0 48 48">
  <linearGradient id="PgB_UHa29h0TpFV_moJI9a" x1="9.816" x2="41.246" y1="9.871" y2="41.301" gradientUnits="userSpaceOnUse">
    <stop offset="0" stop-color="#f22f2f"/>
    <stop offset=".5" stop-color="#e91e63"/>
    <stop offset="1" stop-color="#9c27b0"/>
  </linearGradient>
  <path fill="url(#PgB_UHa29h0TpFV_moJI9a)" d="M24,4C12.954,4,4,12.954,4,24s8.954,20,20,20s20-8.954,20-20S35.046,4,24,4z"/>
  <path fill="#fff" d="M24,7c9.389,0,17,7.611,17,17s-7.611,17-17,17S7,33.389,7,24S14.611,7,24,7z"/>
  <path fill="#000" d="M20.447,28.862c0.3,0.168,0.639,0.265,1,0.265c1.105,0,2-0.895,2-2V15.5h2.025 c-0.093-0.512-0.025-1.03,0.242-1.5H22.5c-0.552,0-1,0.448-1,1v11.326c0,0.552-0.448,1-1,1c-0.552,0-1-0.448-1-1 c0-0.552-0.448-1-1-1s-1,0.448-1,1C17.5,27.434,18.795,28.528,20.447,28.862z"/>
  <path fill="#000" d="M30.025,22.5c-1.105,0-2-0.895-2-2c0-0.371,0.106-0.713,0.274-1.014 C27.857,19.167,27.404,19,26.917,19c-1.105,0-2,0.895-2,2v7.5c-0.552,0-1-0.448-1-1v-7.5c0-1.657,1.343-3,3-3 c0.351,0,0.688,0.06,1,0.171V14c0-0.552,0.448-1,1-1s1,0.448,1,1v3.5c0.552,0,1,0.448,1,1s-0.448,1-1,1V22.5z"/>
</svg>
